<?xml version="1.0" standalone="no"?>
<!DOCTYPE svg PUBLIC "-//W3C//DTD SVG 20010904//EN"
 "http://www.w3.org/TR/2001/REC-SVG-20010904/DTD/svg10.dtd">
<svg version="1.0" xmlns="http://www.w3.org/2000/svg"
 width="275.000000pt" height="183.000000pt" viewBox="0 0 275.000000 183.000000"
 preserveAspectRatio="xMidYMid meet">

<g transform="translate(0.000000,183.000000) scale(0.100000,-0.100000)"
fill="#000000" stroke="none">
<path d="M1417 1445 l-127 -76 17 -32 c10 -18 92 -162 183 -320 l164 -287 178
0 178 0 -27 48 c-270 469 -429 742 -433 742 -3 0 -62 -34 -133 -75z"/>
<path d="M1115 1166 c-72 -41 -129 -78 -128 -82 1 -5 47 -88 102 -185 77 -135
101 -185 101 -213 0 -35 1 -36 35 -36 34 0 35 1 35 40 l0 39 140 3 139 3 -142
247 c-79 136 -145 249 -148 252 -3 3 -63 -28 -134 -68z"/>
<path d="M795 890 c-66 -39 -120 -74 -120 -78 1 -4 9 -24 20 -44 l19 -38 179
0 179 0 -22 38 c-12 20 -42 72 -67 115 -25 42 -50 77 -56 77 -7 0 -66 -32
-132 -70z"/>
<path d="M1080 659 c0 -59 -1 -61 -22 -54 -124 41 -228 -23 -228 -139 0 -93
62 -156 153 -156 27 0 58 5 70 11 16 9 22 9 25 0 2 -6 19 -11 38 -11 l34 0 0
205 0 205 -35 0 -35 0 0 -61z m-49 -119 c27 -15 51 -65 43 -94 -17 -67 -107
-92 -151 -41 -65 75 20 182 108 135z"/>
<path d="M1550 659 c0 -54 -2 -60 -17 -54 -45 19 -110 17 -150 -4 -107 -54
-113 -209 -11 -271 37 -22 116 -27 151 -9 16 9 22 9 25 0 2 -6 19 -11 38 -11
l34 0 0 205 0 205 -35 0 -35 0 0 -61z m-34 -133 c37 -31 39 -86 4 -121 -58
-56 -150 -20 -150 60 0 76 87 112 146 61z"/>
<path d="M2250 703 c12 -18 12 -24 -1 -40 -13 -16 -13 -17 4 -4 21 17 22 35 0
52 -15 13 -15 12 -3 -8z"/>
<path d="M2191 684 c0 -11 3 -14 6 -6 3 7 2 16 -1 19 -3 4 -6 -2 -5 -13z"/>
<path d="M2225 680 c3 -5 8 -10 11 -10 2 0 4 5 4 10 0 6 -5 10 -11 10 -5 0 -7
-4 -4 -10z"/>
<path d="M570 609 c-65 -26 -108 -106 -95 -175 7 -39 46 -89 86 -109 32 -17
111 -20 140 -5 13 7 19 7 19 0 0 -5 18 -10 40 -10 l40 0 0 155 0 155 -39 0
c-22 0 -41 -5 -43 -11 -2 -7 -12 -7 -31 0 -35 13 -83 13 -117 0z m125 -84 c45
-44 29 -116 -30 -141 -42 -17 -73 -7 -104 33 -64 80 62 181 134 108z"/>
<path d="M1190 470 l0 -150 35 0 35 0 0 150 0 150 -35 0 -35 0 0 -150z"/>
<path d="M1734 600 c-104 -52 -112 -201 -14 -267 36 -25 108 -31 154 -13 17 6
26 6 26 0 0 -6 16 -10 35 -10 l35 0 0 155 0 155 -34 0 c-19 0 -36 -5 -38 -11
-2 -7 -12 -7 -31 0 -43 16 -88 13 -133 -9z m140 -81 c42 -49 29 -106 -31 -134
-31 -15 -36 -15 -71 2 -22 10 -41 29 -46 44 -32 93 85 163 148 88z"/>
<path d="M2074 610 c-28 -11 -64 -58 -64 -82 0 -10 7 -32 15 -47 14 -28 40
-39 133 -57 40 -7 53 -31 27 -50 -30 -22 -71 -17 -93 11 -15 18 -29 25 -55 25
-36 0 -36 0 -25 -31 15 -44 61 -69 126 -69 108 0 165 59 131 134 -12 26 -54
45 -134 62 -30 7 -40 14 -40 29 0 16 8 21 43 23 37 3 44 0 49 -17 4 -17 13
-21 44 -21 l39 0 -13 33 c-22 54 -116 84 -183 57z"/>
</g>
</svg>
